<mxfile host="app.diagrams.net" modified="2023-06-14T17:34:28.597Z" agent="Mozilla/5.0 (Macintosh; Intel Mac OS X 10_15_7) AppleWebKit/537.36 (KHTML, like Gecko) Chrome/114.0.0.0 Safari/537.36" etag="MJ7bsWKWgyD93LMo420c" version="21.3.8" type="github">
  <diagram name="Page-1" id="WVoSnmrmKL5iLAndfCEq">
    <mxGraphModel dx="58" dy="3276" grid="1" gridSize="10" guides="1" tooltips="1" connect="1" arrows="1" fold="1" page="1" pageScale="1" pageWidth="850" pageHeight="1100" math="0" shadow="0">
      <root>
        <mxCell id="0" />
        <mxCell id="1" parent="0" />
        <mxCell id="4alpgv-qtZG3xlOxo7nj-182" value="" style="group" vertex="1" connectable="0" parent="1">
          <mxGeometry x="1840" y="-210" width="2450" height="1610" as="geometry" />
        </mxCell>
        <mxCell id="4alpgv-qtZG3xlOxo7nj-2" value="" style="rounded=0;whiteSpace=wrap;html=1;" vertex="1" parent="4alpgv-qtZG3xlOxo7nj-182">
          <mxGeometry y="10" width="1420" height="1580" as="geometry" />
        </mxCell>
        <mxCell id="4alpgv-qtZG3xlOxo7nj-152" value="" style="group" vertex="1" connectable="0" parent="4alpgv-qtZG3xlOxo7nj-182">
          <mxGeometry x="20" y="50" width="525.0043478260868" height="1520" as="geometry" />
        </mxCell>
        <mxCell id="4alpgv-qtZG3xlOxo7nj-150" value="" style="rounded=0;whiteSpace=wrap;html=1;" vertex="1" parent="4alpgv-qtZG3xlOxo7nj-152">
          <mxGeometry y="20.17" width="440" height="1499.83" as="geometry" />
        </mxCell>
        <mxCell id="4alpgv-qtZG3xlOxo7nj-151" value="&lt;font style=&quot;font-size: 18px;&quot;&gt;Setup&lt;/font&gt;" style="text;html=1;strokeColor=none;fillColor=none;align=center;verticalAlign=middle;whiteSpace=wrap;rounded=0;" vertex="1" parent="4alpgv-qtZG3xlOxo7nj-152">
          <mxGeometry x="159.99999999999997" y="20.1728894634777" width="120" height="29.747899159663863" as="geometry" />
        </mxCell>
        <mxCell id="4alpgv-qtZG3xlOxo7nj-21" value="" style="group" vertex="1" connectable="0" parent="4alpgv-qtZG3xlOxo7nj-152">
          <mxGeometry x="105" y="99.15966386554621" width="230" height="406.5546218487395" as="geometry" />
        </mxCell>
        <mxCell id="4alpgv-qtZG3xlOxo7nj-11" value="&lt;span style=&quot;font-size: 14px;&quot;&gt;The location of the cloned repository in the local file system&lt;/span&gt;" style="whiteSpace=wrap;html=1;aspect=fixed;" vertex="1" parent="4alpgv-qtZG3xlOxo7nj-21">
          <mxGeometry x="28.740000000000002" y="205.72655462184872" width="162.25510412860797" height="162.25510412860797" as="geometry" />
        </mxCell>
        <mxCell id="4alpgv-qtZG3xlOxo7nj-12" value="&lt;font style=&quot;font-size: 15px;&quot;&gt;Local Repo&lt;/font&gt;" style="text;html=1;strokeColor=none;fillColor=none;align=center;verticalAlign=middle;whiteSpace=wrap;rounded=0;" vertex="1" parent="4alpgv-qtZG3xlOxo7nj-21">
          <mxGeometry x="54.69512195121952" y="205.72643515237417" width="120.60975609756099" height="29.389490736053453" as="geometry" />
        </mxCell>
        <mxCell id="4alpgv-qtZG3xlOxo7nj-17" value="" style="group" vertex="1" connectable="0" parent="4alpgv-qtZG3xlOxo7nj-21">
          <mxGeometry x="5.61" y="-18.692166521781125" width="224.39" height="136.2472017772626" as="geometry" />
        </mxCell>
        <mxCell id="4alpgv-qtZG3xlOxo7nj-3" value="" style="rounded=0;whiteSpace=wrap;html=1;" vertex="1" parent="4alpgv-qtZG3xlOxo7nj-17">
          <mxGeometry width="224.39" height="136.24720177726257" as="geometry" />
        </mxCell>
        <mxCell id="4alpgv-qtZG3xlOxo7nj-4" value="Remote SQL Repo" style="text;html=1;strokeColor=none;fillColor=none;align=center;verticalAlign=middle;whiteSpace=wrap;rounded=0;" vertex="1" parent="4alpgv-qtZG3xlOxo7nj-17">
          <mxGeometry x="63.10968750000001" y="1.2386109252478417" width="119.20718749999999" height="37.15832775743525" as="geometry" />
        </mxCell>
        <mxCell id="4alpgv-qtZG3xlOxo7nj-5" value="" style="rounded=0;whiteSpace=wrap;html=1;" vertex="1" parent="4alpgv-qtZG3xlOxo7nj-17">
          <mxGeometry y="37.15832775743525" width="112.195" height="99.08887401982732" as="geometry" />
        </mxCell>
        <mxCell id="4alpgv-qtZG3xlOxo7nj-6" value="" style="rounded=0;whiteSpace=wrap;html=1;" vertex="1" parent="4alpgv-qtZG3xlOxo7nj-17">
          <mxGeometry x="112.195" y="37.15832775743525" width="112.195" height="99.08887401982732" as="geometry" />
        </mxCell>
        <mxCell id="4alpgv-qtZG3xlOxo7nj-7" value="input/" style="text;html=1;strokeColor=none;fillColor=none;align=center;verticalAlign=middle;whiteSpace=wrap;rounded=0;" vertex="1" parent="4alpgv-qtZG3xlOxo7nj-17">
          <mxGeometry y="37.15832775743525" width="112.195" height="99.08887401982732" as="geometry" />
        </mxCell>
        <mxCell id="4alpgv-qtZG3xlOxo7nj-8" value="output/" style="text;html=1;strokeColor=none;fillColor=none;align=center;verticalAlign=middle;whiteSpace=wrap;rounded=0;" vertex="1" parent="4alpgv-qtZG3xlOxo7nj-17">
          <mxGeometry x="112.195" y="37.15832775743525" width="112.195" height="99.08887401982732" as="geometry" />
        </mxCell>
        <mxCell id="4alpgv-qtZG3xlOxo7nj-10" value="" style="dashed=0;outlineConnect=0;html=1;align=center;labelPosition=center;verticalLabelPosition=bottom;verticalAlign=top;shape=mxgraph.weblogos.github" vertex="1" parent="4alpgv-qtZG3xlOxo7nj-17">
          <mxGeometry width="51.890187499999996" height="38.39693868268308" as="geometry" />
        </mxCell>
        <mxCell id="4alpgv-qtZG3xlOxo7nj-15" value="Pull remote repo" style="edgeStyle=orthogonalEdgeStyle;rounded=0;orthogonalLoop=1;jettySize=auto;html=1;entryX=0.25;entryY=0;entryDx=0;entryDy=0;" edge="1" parent="4alpgv-qtZG3xlOxo7nj-21" source="4alpgv-qtZG3xlOxo7nj-7" target="4alpgv-qtZG3xlOxo7nj-11">
          <mxGeometry relative="1" as="geometry">
            <Array as="points">
              <mxPoint x="48.243902439024396" y="117.55796294421381" />
              <mxPoint x="48.243902439024396" y="117.55796294421381" />
            </Array>
          </mxGeometry>
        </mxCell>
        <mxCell id="4alpgv-qtZG3xlOxo7nj-18" value="Push validated&amp;nbsp;&amp;nbsp;&lt;br&gt;BigQuery SQL" style="edgeStyle=orthogonalEdgeStyle;rounded=0;orthogonalLoop=1;jettySize=auto;html=1;exitX=0.75;exitY=0;exitDx=0;exitDy=0;entryX=0.5;entryY=1;entryDx=0;entryDy=0;" edge="1" parent="4alpgv-qtZG3xlOxo7nj-21">
          <mxGeometry relative="1" as="geometry">
            <mxPoint x="150.43132809645613" y="204.72655462184892" as="sourcePoint" />
            <mxPoint x="173.9024999999997" y="116.55503525548127" as="targetPoint" />
            <Array as="points">
              <mxPoint x="173.90243902439025" y="204.72643515237417" />
            </Array>
          </mxGeometry>
        </mxCell>
        <mxCell id="4alpgv-qtZG3xlOxo7nj-27" value="" style="image;html=1;image=img/lib/clip_art/general/Full_Folder_128x128.png" vertex="1" parent="4alpgv-qtZG3xlOxo7nj-21">
          <mxGeometry x="28.740000000000002" y="205.72655462184875" width="37" height="32.36571428571428" as="geometry" />
        </mxCell>
        <mxCell id="4alpgv-qtZG3xlOxo7nj-141" value="" style="group" vertex="1" connectable="0" parent="4alpgv-qtZG3xlOxo7nj-152">
          <mxGeometry x="35.004347826086956" y="535.4621848739496" width="370" height="218.15126050420164" as="geometry" />
        </mxCell>
        <mxCell id="4alpgv-qtZG3xlOxo7nj-31" value="" style="rounded=0;whiteSpace=wrap;html=1;" vertex="1" parent="4alpgv-qtZG3xlOxo7nj-141">
          <mxGeometry width="370" height="218.15126050420164" as="geometry" />
        </mxCell>
        <mxCell id="4alpgv-qtZG3xlOxo7nj-45" value="&lt;font style=&quot;font-size: 18px;&quot;&gt;Required Resources&lt;/font&gt;" style="text;html=1;strokeColor=none;fillColor=none;align=center;verticalAlign=middle;whiteSpace=wrap;rounded=0;" vertex="1" parent="4alpgv-qtZG3xlOxo7nj-141">
          <mxGeometry x="93.75" y="9.91596638655462" width="182.5" height="29.747899159663863" as="geometry" />
        </mxCell>
        <mxCell id="4alpgv-qtZG3xlOxo7nj-46" value="&lt;br&gt;&lt;br&gt;A CSV file containing a single column with the names of all the UC4 jobs you are migrating&amp;nbsp;&lt;br&gt;&lt;br&gt;A_UC4_JOB&lt;br&gt;ANOTHER_JOB" style="rounded=0;whiteSpace=wrap;html=1;" vertex="1" parent="4alpgv-qtZG3xlOxo7nj-141">
          <mxGeometry x="9.999999999999998" y="49.579831932773104" width="159.99999999999997" height="158.65546218487393" as="geometry" />
        </mxCell>
        <mxCell id="4alpgv-qtZG3xlOxo7nj-140" value="" style="rounded=0;whiteSpace=wrap;html=1;" vertex="1" parent="4alpgv-qtZG3xlOxo7nj-141">
          <mxGeometry x="9.999999999999998" y="49.579831932773104" width="159.99999999999997" height="29.747899159663863" as="geometry" />
        </mxCell>
        <mxCell id="4alpgv-qtZG3xlOxo7nj-50" value="UC4 CSV File" style="text;html=1;strokeColor=none;fillColor=none;align=center;verticalAlign=middle;whiteSpace=wrap;rounded=0;" vertex="1" parent="4alpgv-qtZG3xlOxo7nj-141">
          <mxGeometry x="50" y="49.579831932773104" width="79.99999999999999" height="29.747899159663863" as="geometry" />
        </mxCell>
        <mxCell id="4alpgv-qtZG3xlOxo7nj-67" value="" style="group" vertex="1" connectable="0" parent="4alpgv-qtZG3xlOxo7nj-141">
          <mxGeometry x="210" y="49.579831932773104" width="150" height="161.1344537815126" as="geometry" />
        </mxCell>
        <mxCell id="4alpgv-qtZG3xlOxo7nj-47" value="&lt;br&gt;&lt;br&gt;A CSV file with two columns.&lt;br&gt;Business Unit and the&amp;nbsp; dataset that business units tables should be migrated into.&lt;br&gt;&lt;br&gt;&quot;RISK&quot;,&quot;risk_dataset&quot;" style="rounded=0;whiteSpace=wrap;html=1;" vertex="1" parent="4alpgv-qtZG3xlOxo7nj-67">
          <mxGeometry width="150" height="161.1344537815126" as="geometry" />
        </mxCell>
        <mxCell id="4alpgv-qtZG3xlOxo7nj-66" value="" style="rounded=0;whiteSpace=wrap;html=1;" vertex="1" parent="4alpgv-qtZG3xlOxo7nj-67">
          <mxGeometry width="150" height="27.76470588235294" as="geometry" />
        </mxCell>
        <mxCell id="4alpgv-qtZG3xlOxo7nj-51" value="&lt;font style=&quot;font-size: 14px;&quot;&gt;Dataset Mapping CSV&lt;/font&gt;" style="text;html=1;strokeColor=none;fillColor=none;align=center;verticalAlign=middle;whiteSpace=wrap;rounded=0;" vertex="1" parent="4alpgv-qtZG3xlOxo7nj-67">
          <mxGeometry width="150" height="27.268907563025206" as="geometry" />
        </mxCell>
        <mxCell id="4alpgv-qtZG3xlOxo7nj-148" value="" style="group" vertex="1" connectable="0" parent="4alpgv-qtZG3xlOxo7nj-152">
          <mxGeometry x="35.00434782608696" y="759.9973109243697" width="370" height="329.70588235294116" as="geometry" />
        </mxCell>
        <mxCell id="4alpgv-qtZG3xlOxo7nj-143" value="" style="rounded=0;whiteSpace=wrap;html=1;" vertex="1" parent="4alpgv-qtZG3xlOxo7nj-148">
          <mxGeometry y="50" width="370" height="277.23" as="geometry" />
        </mxCell>
        <mxCell id="4alpgv-qtZG3xlOxo7nj-139" value="" style="group" vertex="1" connectable="0" parent="4alpgv-qtZG3xlOxo7nj-148">
          <mxGeometry x="9.999999999999998" y="118.99159663865545" width="350" height="210.7142857142857" as="geometry" />
        </mxCell>
        <mxCell id="4alpgv-qtZG3xlOxo7nj-49" value="" style="rounded=0;whiteSpace=wrap;html=1;" vertex="1" parent="4alpgv-qtZG3xlOxo7nj-139">
          <mxGeometry width="350" height="198.31932773109241" as="geometry" />
        </mxCell>
        <mxCell id="4alpgv-qtZG3xlOxo7nj-68" value="&lt;font style=&quot;font-size: 20px;&quot;&gt;If the translation_log table doesn&#39;t exist , the script will create it&lt;/font&gt;" style="text;html=1;strokeColor=none;fillColor=none;align=center;verticalAlign=middle;whiteSpace=wrap;rounded=0;" vertex="1" parent="4alpgv-qtZG3xlOxo7nj-139">
          <mxGeometry width="350" height="59.495798319327726" as="geometry" />
        </mxCell>
        <mxCell id="4alpgv-qtZG3xlOxo7nj-137" value="" style="group" vertex="1" connectable="0" parent="4alpgv-qtZG3xlOxo7nj-139">
          <mxGeometry y="59.495798319327726" width="350" height="151.21848739495798" as="geometry" />
        </mxCell>
        <mxCell id="4alpgv-qtZG3xlOxo7nj-110" value="&lt;font style=&quot;font-size: 18px;&quot;&gt;translation_log&lt;/font&gt;" style="rounded=0;whiteSpace=wrap;html=1;" vertex="1" parent="4alpgv-qtZG3xlOxo7nj-137">
          <mxGeometry width="350" height="34.70588235294117" as="geometry" />
        </mxCell>
        <mxCell id="4alpgv-qtZG3xlOxo7nj-115" value="&lt;font style=&quot;font-size: 14px;&quot;&gt;uc4_job&lt;/font&gt;" style="rounded=0;whiteSpace=wrap;html=1;" vertex="1" parent="4alpgv-qtZG3xlOxo7nj-137">
          <mxGeometry y="34.70588235294117" width="56.75675675675676" height="34.70588235294117" as="geometry" />
        </mxCell>
        <mxCell id="4alpgv-qtZG3xlOxo7nj-116" value="&lt;font style=&quot;font-size: 14px;&quot;&gt;status&lt;/font&gt;" style="rounded=0;whiteSpace=wrap;html=1;" vertex="1" parent="4alpgv-qtZG3xlOxo7nj-137">
          <mxGeometry x="56.75675675675676" y="34.70588235294117" width="47.2972972972973" height="34.70588235294117" as="geometry" />
        </mxCell>
        <mxCell id="4alpgv-qtZG3xlOxo7nj-117" value="&lt;font style=&quot;font-size: 14px;&quot;&gt;message&lt;/font&gt;" style="rounded=0;whiteSpace=wrap;html=1;" vertex="1" parent="4alpgv-qtZG3xlOxo7nj-137">
          <mxGeometry x="104.05405405405405" y="34.70588235294117" width="56.75675675675676" height="34.70588235294117" as="geometry" />
        </mxCell>
        <mxCell id="4alpgv-qtZG3xlOxo7nj-118" value="&lt;font style=&quot;font-size: 14px;&quot;&gt;dry_run_sql&lt;/font&gt;" style="rounded=0;whiteSpace=wrap;html=1;" vertex="1" parent="4alpgv-qtZG3xlOxo7nj-137">
          <mxGeometry x="160.8108108108108" y="34.70588235294117" width="66.21621621621621" height="34.70588235294117" as="geometry" />
        </mxCell>
        <mxCell id="4alpgv-qtZG3xlOxo7nj-119" value="&lt;font style=&quot;font-size: 14px;&quot;&gt;referenced&lt;/font&gt;" style="rounded=0;whiteSpace=wrap;html=1;" vertex="1" parent="4alpgv-qtZG3xlOxo7nj-137">
          <mxGeometry x="227.02702702702703" y="34.70588235294117" width="66.21621621621621" height="34.70588235294117" as="geometry" />
        </mxCell>
        <mxCell id="4alpgv-qtZG3xlOxo7nj-120" value="&lt;font style=&quot;font-size: 14px;&quot;&gt;timestamp&lt;/font&gt;" style="rounded=0;whiteSpace=wrap;html=1;" vertex="1" parent="4alpgv-qtZG3xlOxo7nj-137">
          <mxGeometry x="293.2432432432432" y="34.70588235294117" width="56.75675675675676" height="34.70588235294117" as="geometry" />
        </mxCell>
        <mxCell id="4alpgv-qtZG3xlOxo7nj-121" style="edgeStyle=orthogonalEdgeStyle;rounded=0;orthogonalLoop=1;jettySize=auto;html=1;exitX=0.5;exitY=1;exitDx=0;exitDy=0;" edge="1" parent="4alpgv-qtZG3xlOxo7nj-137" source="4alpgv-qtZG3xlOxo7nj-118" target="4alpgv-qtZG3xlOxo7nj-118">
          <mxGeometry relative="1" as="geometry" />
        </mxCell>
        <mxCell id="4alpgv-qtZG3xlOxo7nj-123" value="" style="rounded=0;whiteSpace=wrap;html=1;" vertex="1" parent="4alpgv-qtZG3xlOxo7nj-137">
          <mxGeometry y="69.41176470588233" width="56.75675675675676" height="34.70588235294117" as="geometry" />
        </mxCell>
        <mxCell id="4alpgv-qtZG3xlOxo7nj-125" value="" style="rounded=0;whiteSpace=wrap;html=1;" vertex="1" parent="4alpgv-qtZG3xlOxo7nj-137">
          <mxGeometry x="104.05405405405405" y="69.41176470588233" width="56.75675675675676" height="34.70588235294117" as="geometry" />
        </mxCell>
        <mxCell id="4alpgv-qtZG3xlOxo7nj-126" value="" style="rounded=0;whiteSpace=wrap;html=1;" vertex="1" parent="4alpgv-qtZG3xlOxo7nj-137">
          <mxGeometry x="160.8108108108108" y="69.41176470588233" width="66.21621621621621" height="34.70588235294117" as="geometry" />
        </mxCell>
        <mxCell id="4alpgv-qtZG3xlOxo7nj-127" value="" style="rounded=0;whiteSpace=wrap;html=1;" vertex="1" parent="4alpgv-qtZG3xlOxo7nj-137">
          <mxGeometry x="227.02702702702703" y="69.41176470588233" width="66.21621621621621" height="34.70588235294117" as="geometry" />
        </mxCell>
        <mxCell id="4alpgv-qtZG3xlOxo7nj-128" value="" style="rounded=0;whiteSpace=wrap;html=1;" vertex="1" parent="4alpgv-qtZG3xlOxo7nj-137">
          <mxGeometry x="293.2432432432432" y="69.41176470588233" width="56.75675675675676" height="34.70588235294117" as="geometry" />
        </mxCell>
        <mxCell id="4alpgv-qtZG3xlOxo7nj-129" style="edgeStyle=orthogonalEdgeStyle;rounded=0;orthogonalLoop=1;jettySize=auto;html=1;exitX=0.5;exitY=1;exitDx=0;exitDy=0;" edge="1" parent="4alpgv-qtZG3xlOxo7nj-137" source="4alpgv-qtZG3xlOxo7nj-126" target="4alpgv-qtZG3xlOxo7nj-126">
          <mxGeometry relative="1" as="geometry" />
        </mxCell>
        <mxCell id="4alpgv-qtZG3xlOxo7nj-130" value="" style="rounded=0;whiteSpace=wrap;html=1;" vertex="1" parent="4alpgv-qtZG3xlOxo7nj-137">
          <mxGeometry y="104.11764705882352" width="56.75675675675676" height="34.70588235294117" as="geometry" />
        </mxCell>
        <mxCell id="4alpgv-qtZG3xlOxo7nj-131" value="" style="rounded=0;whiteSpace=wrap;html=1;" vertex="1" parent="4alpgv-qtZG3xlOxo7nj-137">
          <mxGeometry x="56.75675675675676" y="104.11764705882352" width="47.2972972972973" height="34.70588235294117" as="geometry" />
        </mxCell>
        <mxCell id="4alpgv-qtZG3xlOxo7nj-132" value="" style="rounded=0;whiteSpace=wrap;html=1;" vertex="1" parent="4alpgv-qtZG3xlOxo7nj-137">
          <mxGeometry x="104.05405405405405" y="104.11764705882352" width="56.75675675675676" height="34.70588235294117" as="geometry" />
        </mxCell>
        <mxCell id="4alpgv-qtZG3xlOxo7nj-133" value="" style="rounded=0;whiteSpace=wrap;html=1;" vertex="1" parent="4alpgv-qtZG3xlOxo7nj-137">
          <mxGeometry x="160.8108108108108" y="104.11764705882352" width="66.21621621621621" height="34.70588235294117" as="geometry" />
        </mxCell>
        <mxCell id="4alpgv-qtZG3xlOxo7nj-134" value="" style="rounded=0;whiteSpace=wrap;html=1;" vertex="1" parent="4alpgv-qtZG3xlOxo7nj-137">
          <mxGeometry x="227.02702702702703" y="104.11764705882352" width="66.21621621621621" height="34.70588235294117" as="geometry" />
        </mxCell>
        <mxCell id="4alpgv-qtZG3xlOxo7nj-135" value="" style="rounded=0;whiteSpace=wrap;html=1;" vertex="1" parent="4alpgv-qtZG3xlOxo7nj-137">
          <mxGeometry x="293.2432432432432" y="104.11764705882352" width="56.75675675675676" height="34.70588235294117" as="geometry" />
        </mxCell>
        <mxCell id="4alpgv-qtZG3xlOxo7nj-136" style="edgeStyle=orthogonalEdgeStyle;rounded=0;orthogonalLoop=1;jettySize=auto;html=1;exitX=0.5;exitY=1;exitDx=0;exitDy=0;" edge="1" parent="4alpgv-qtZG3xlOxo7nj-137" source="4alpgv-qtZG3xlOxo7nj-133" target="4alpgv-qtZG3xlOxo7nj-133">
          <mxGeometry relative="1" as="geometry" />
        </mxCell>
        <mxCell id="4alpgv-qtZG3xlOxo7nj-138" style="edgeStyle=orthogonalEdgeStyle;rounded=0;orthogonalLoop=1;jettySize=auto;html=1;exitX=0.5;exitY=0;exitDx=0;exitDy=0;entryX=1;entryY=0.25;entryDx=0;entryDy=0;" edge="1" parent="4alpgv-qtZG3xlOxo7nj-137" source="4alpgv-qtZG3xlOxo7nj-126" target="4alpgv-qtZG3xlOxo7nj-126">
          <mxGeometry relative="1" as="geometry" />
        </mxCell>
        <mxCell id="4alpgv-qtZG3xlOxo7nj-280" style="edgeStyle=orthogonalEdgeStyle;rounded=0;orthogonalLoop=1;jettySize=auto;html=1;exitX=0.25;exitY=0;exitDx=0;exitDy=0;entryX=0;entryY=0.25;entryDx=0;entryDy=0;" edge="1" parent="4alpgv-qtZG3xlOxo7nj-137" source="4alpgv-qtZG3xlOxo7nj-131" target="4alpgv-qtZG3xlOxo7nj-131">
          <mxGeometry relative="1" as="geometry" />
        </mxCell>
        <mxCell id="4alpgv-qtZG3xlOxo7nj-146" value="&lt;h1 style=&quot;text-align: center;&quot;&gt;&lt;span style=&quot;background-color: initial;&quot;&gt;Logging table&amp;nbsp;&lt;/span&gt;&lt;/h1&gt;&lt;h1&gt;&lt;br&gt;&lt;/h1&gt;" style="text;html=1;strokeColor=none;fillColor=none;spacing=5;spacingTop=-20;whiteSpace=wrap;overflow=hidden;rounded=0;" vertex="1" parent="4alpgv-qtZG3xlOxo7nj-148">
          <mxGeometry x="94.99565217391296" y="66.72268907563034" width="180" height="40" as="geometry" />
        </mxCell>
        <mxCell id="4alpgv-qtZG3xlOxo7nj-222" value="" style="group" vertex="1" connectable="0" parent="4alpgv-qtZG3xlOxo7nj-152">
          <mxGeometry x="35.00434782608704" y="1159.9973109243697" width="489.9999999999998" height="329.70588235294116" as="geometry" />
        </mxCell>
        <mxCell id="4alpgv-qtZG3xlOxo7nj-223" value="" style="rounded=0;whiteSpace=wrap;html=1;" vertex="1" parent="4alpgv-qtZG3xlOxo7nj-222">
          <mxGeometry width="370" height="327.2268907563025" as="geometry" />
        </mxCell>
        <mxCell id="4alpgv-qtZG3xlOxo7nj-250" value="&lt;h1 style=&quot;text-align: center;&quot;&gt;&lt;span style=&quot;background-color: initial;&quot;&gt;Business unit to dataset mapping&lt;/span&gt;&lt;/h1&gt;&lt;h1&gt;&lt;br&gt;&lt;/h1&gt;" style="text;html=1;strokeColor=none;fillColor=none;spacing=5;spacingTop=-20;whiteSpace=wrap;overflow=hidden;rounded=0;" vertex="1" parent="4alpgv-qtZG3xlOxo7nj-222">
          <mxGeometry width="370" height="118.99" as="geometry" />
        </mxCell>
        <mxCell id="4alpgv-qtZG3xlOxo7nj-226" value="&lt;font style=&quot;font-size: 17px;&quot;&gt;If the dataset_mapping&amp;nbsp;table doesn&#39;t exist , the script will create it&lt;/font&gt;" style="text;html=1;strokeColor=none;fillColor=none;align=center;verticalAlign=middle;whiteSpace=wrap;rounded=0;" vertex="1" parent="4alpgv-qtZG3xlOxo7nj-222">
          <mxGeometry x="9.999999999999773" y="80.00159663865543" width="350" height="59.495798319327726" as="geometry" />
        </mxCell>
        <mxCell id="4alpgv-qtZG3xlOxo7nj-224" value="" style="group" vertex="1" connectable="0" parent="4alpgv-qtZG3xlOxo7nj-222">
          <mxGeometry x="139.99999999999977" y="100.00159663865543" width="350" height="210.7142857142857" as="geometry" />
        </mxCell>
        <mxCell id="4alpgv-qtZG3xlOxo7nj-227" value="" style="group" vertex="1" connectable="0" parent="4alpgv-qtZG3xlOxo7nj-224">
          <mxGeometry x="-20" y="59.495798319327726" width="350" height="151.21848739495798" as="geometry" />
        </mxCell>
        <mxCell id="4alpgv-qtZG3xlOxo7nj-278" value="" style="group" vertex="1" connectable="0" parent="4alpgv-qtZG3xlOxo7nj-227">
          <mxGeometry width="130" height="138.8235294117647" as="geometry" />
        </mxCell>
        <mxCell id="4alpgv-qtZG3xlOxo7nj-228" value="&lt;span style=&quot;font-size: 15px;&quot;&gt;dataset_mapping&lt;/span&gt;" style="rounded=0;whiteSpace=wrap;html=1;" vertex="1" parent="4alpgv-qtZG3xlOxo7nj-278">
          <mxGeometry width="130" height="34.71" as="geometry" />
        </mxCell>
        <mxCell id="4alpgv-qtZG3xlOxo7nj-229" value="uc4_job" style="rounded=0;whiteSpace=wrap;html=1;" vertex="1" parent="4alpgv-qtZG3xlOxo7nj-278">
          <mxGeometry y="34.70588235294117" width="56.75675675675676" height="34.70588235294117" as="geometry" />
        </mxCell>
        <mxCell id="4alpgv-qtZG3xlOxo7nj-230" value="status" style="rounded=0;whiteSpace=wrap;html=1;" vertex="1" parent="4alpgv-qtZG3xlOxo7nj-278">
          <mxGeometry x="56.76" y="34.71" width="73.24" height="34.71" as="geometry" />
        </mxCell>
        <mxCell id="4alpgv-qtZG3xlOxo7nj-236" value="" style="rounded=0;whiteSpace=wrap;html=1;" vertex="1" parent="4alpgv-qtZG3xlOxo7nj-278">
          <mxGeometry y="69.41176470588233" width="56.75675675675676" height="34.70588235294117" as="geometry" />
        </mxCell>
        <mxCell id="4alpgv-qtZG3xlOxo7nj-242" value="" style="rounded=0;whiteSpace=wrap;html=1;" vertex="1" parent="4alpgv-qtZG3xlOxo7nj-278">
          <mxGeometry y="104.11764705882352" width="56.75675675675676" height="34.70588235294117" as="geometry" />
        </mxCell>
        <mxCell id="4alpgv-qtZG3xlOxo7nj-243" value="" style="rounded=0;whiteSpace=wrap;html=1;" vertex="1" parent="4alpgv-qtZG3xlOxo7nj-278">
          <mxGeometry x="56.76" y="100" width="73.24" height="38.82" as="geometry" />
        </mxCell>
        <mxCell id="4alpgv-qtZG3xlOxo7nj-277" value="" style="rounded=0;whiteSpace=wrap;html=1;" vertex="1" parent="4alpgv-qtZG3xlOxo7nj-278">
          <mxGeometry x="56.76" y="69.41" width="73.24" height="34.71" as="geometry" />
        </mxCell>
        <mxCell id="4alpgv-qtZG3xlOxo7nj-157" value="" style="rounded=0;whiteSpace=wrap;html=1;" vertex="1" parent="4alpgv-qtZG3xlOxo7nj-182">
          <mxGeometry x="565" y="70" width="810" height="800" as="geometry" />
        </mxCell>
        <mxCell id="4alpgv-qtZG3xlOxo7nj-171" style="edgeStyle=orthogonalEdgeStyle;rounded=0;orthogonalLoop=1;jettySize=auto;html=1;entryX=0;entryY=0.5;entryDx=0;entryDy=0;" edge="1" parent="4alpgv-qtZG3xlOxo7nj-182" source="4alpgv-qtZG3xlOxo7nj-11" target="4alpgv-qtZG3xlOxo7nj-163">
          <mxGeometry relative="1" as="geometry" />
        </mxCell>
        <mxCell id="4alpgv-qtZG3xlOxo7nj-177" style="edgeStyle=orthogonalEdgeStyle;rounded=0;orthogonalLoop=1;jettySize=auto;html=1;entryX=0.526;entryY=1.014;entryDx=0;entryDy=0;entryPerimeter=0;" edge="1" parent="4alpgv-qtZG3xlOxo7nj-182" source="4alpgv-qtZG3xlOxo7nj-23" target="4alpgv-qtZG3xlOxo7nj-160">
          <mxGeometry relative="1" as="geometry" />
        </mxCell>
        <mxCell id="4alpgv-qtZG3xlOxo7nj-178" style="edgeStyle=orthogonalEdgeStyle;rounded=0;orthogonalLoop=1;jettySize=auto;html=1;entryX=1.023;entryY=0.108;entryDx=0;entryDy=0;entryPerimeter=0;" edge="1" parent="4alpgv-qtZG3xlOxo7nj-182" source="4alpgv-qtZG3xlOxo7nj-160" target="4alpgv-qtZG3xlOxo7nj-11">
          <mxGeometry relative="1" as="geometry">
            <Array as="points">
              <mxPoint x="810" y="372" />
            </Array>
          </mxGeometry>
        </mxCell>
        <mxCell id="4alpgv-qtZG3xlOxo7nj-179" value="&lt;u&gt;&lt;font style=&quot;font-size: 35px;&quot;&gt;make translate&lt;/font&gt;&lt;/u&gt;" style="text;strokeColor=none;fillColor=none;html=1;fontSize=24;fontStyle=1;verticalAlign=middle;align=center;" vertex="1" parent="4alpgv-qtZG3xlOxo7nj-182">
          <mxGeometry x="825" y="70" width="290" height="60" as="geometry" />
        </mxCell>
        <mxCell id="4alpgv-qtZG3xlOxo7nj-387" style="edgeStyle=orthogonalEdgeStyle;rounded=0;orthogonalLoop=1;jettySize=auto;html=1;entryX=1;entryY=0.75;entryDx=0;entryDy=0;" edge="1" parent="4alpgv-qtZG3xlOxo7nj-182" source="4alpgv-qtZG3xlOxo7nj-384" target="4alpgv-qtZG3xlOxo7nj-243">
          <mxGeometry relative="1" as="geometry" />
        </mxCell>
        <mxCell id="4alpgv-qtZG3xlOxo7nj-389" style="edgeStyle=orthogonalEdgeStyle;rounded=0;orthogonalLoop=1;jettySize=auto;html=1;entryX=0.5;entryY=1;entryDx=0;entryDy=0;" edge="1" parent="4alpgv-qtZG3xlOxo7nj-182" source="4alpgv-qtZG3xlOxo7nj-163" target="4alpgv-qtZG3xlOxo7nj-23">
          <mxGeometry relative="1" as="geometry">
            <mxPoint x="985" y="769.9999999999995" as="targetPoint" />
          </mxGeometry>
        </mxCell>
        <mxCell id="4alpgv-qtZG3xlOxo7nj-170" value="" style="group" vertex="1" connectable="0" parent="4alpgv-qtZG3xlOxo7nj-182">
          <mxGeometry x="680" y="130" width="580" height="170" as="geometry" />
        </mxCell>
        <mxCell id="4alpgv-qtZG3xlOxo7nj-167" value="" style="rounded=0;whiteSpace=wrap;html=1;" vertex="1" parent="4alpgv-qtZG3xlOxo7nj-170">
          <mxGeometry width="580" height="170" as="geometry" />
        </mxCell>
        <mxCell id="4alpgv-qtZG3xlOxo7nj-160" value="&lt;h1&gt;Validate SQL&lt;/h1&gt;&lt;p style=&quot;font-size: 14px;&quot;&gt;&lt;font style=&quot;font-size: 14px;&quot;&gt;Next we will iterate through the BQMS output, extract all the now translated SQL into a single string to submit to BigQuery for a Dry run to ensure the translation was successful.&amp;nbsp;&lt;/font&gt;&lt;/p&gt;&lt;p style=&quot;font-size: 14px;&quot;&gt;&lt;font style=&quot;font-size: 14px;&quot;&gt;Once the validation is complete, we open a new branch on the source repository, move the now translated and validated SQL into the the output directory, and push that brach to the origin repository.&lt;/font&gt;&lt;/p&gt;" style="text;html=1;strokeColor=none;fillColor=none;spacing=5;spacingTop=-20;whiteSpace=wrap;overflow=hidden;rounded=0;" vertex="1" parent="4alpgv-qtZG3xlOxo7nj-170">
          <mxGeometry width="580" height="170" as="geometry" />
        </mxCell>
        <mxCell id="4alpgv-qtZG3xlOxo7nj-162" value="" style="group" vertex="1" connectable="0" parent="4alpgv-qtZG3xlOxo7nj-182">
          <mxGeometry x="868" y="350" width="234" height="225" as="geometry" />
        </mxCell>
        <mxCell id="4alpgv-qtZG3xlOxo7nj-23" value="&lt;font style=&quot;font-size: 14px;&quot;&gt;&lt;br&gt;&lt;br&gt;The existing Google BQMS service.&amp;nbsp;&lt;br&gt;It is responsible for translating the Teradata SQL into BigQuery SQL. For more details on this service please see the following link&lt;br&gt;&lt;br&gt;https://github.com/google/dwh-migration-tools/blob/main/client/README.md&lt;/font&gt;" style="rounded=0;whiteSpace=wrap;html=1;" vertex="1" parent="4alpgv-qtZG3xlOxo7nj-162">
          <mxGeometry width="234" height="225" as="geometry" />
        </mxCell>
        <mxCell id="4alpgv-qtZG3xlOxo7nj-24" value="BQMS" style="text;html=1;strokeColor=none;fillColor=none;align=center;verticalAlign=middle;whiteSpace=wrap;rounded=0;" vertex="1" parent="4alpgv-qtZG3xlOxo7nj-162">
          <mxGeometry x="97" y="20.083928571428576" width="60" height="28.125" as="geometry" />
        </mxCell>
        <mxCell id="4alpgv-qtZG3xlOxo7nj-164" value="" style="group" vertex="1" connectable="0" parent="4alpgv-qtZG3xlOxo7nj-182">
          <mxGeometry x="695" y="630" width="580" height="200" as="geometry" />
        </mxCell>
        <mxCell id="4alpgv-qtZG3xlOxo7nj-163" value="" style="rounded=0;whiteSpace=wrap;html=1;" vertex="1" parent="4alpgv-qtZG3xlOxo7nj-164">
          <mxGeometry width="580" height="200" as="geometry" />
        </mxCell>
        <mxCell id="4alpgv-qtZG3xlOxo7nj-159" value="&lt;h1&gt;Translate SQL&lt;/h1&gt;&lt;div style=&quot;font-size: 15px;&quot;&gt;&lt;font style=&quot;font-size: 15px;&quot;&gt;Our python script around the BQMS service will ensure all the required directories are in place, and clone the UC4 SQL repository into the created required_repositories directory.&amp;nbsp;&lt;/font&gt;&lt;/div&gt;&lt;div style=&quot;font-size: 15px;&quot;&gt;Once all the requirements are in place the script will set the required environment variables, create the required object mapping configurations from the dataset_mapping table, and run a `bqms-run` command to trigger the existing BQMS service&lt;br&gt;&lt;/div&gt;&lt;p&gt;&lt;br&gt;&lt;/p&gt;&lt;p&gt;&lt;br&gt;&lt;/p&gt;" style="text;html=1;strokeColor=none;fillColor=none;spacing=5;spacingTop=-20;whiteSpace=wrap;overflow=hidden;rounded=0;" vertex="1" parent="4alpgv-qtZG3xlOxo7nj-164">
          <mxGeometry x="22.5" width="525" height="190" as="geometry" />
        </mxCell>
        <mxCell id="4alpgv-qtZG3xlOxo7nj-191" value="" style="group" vertex="1" connectable="0" parent="4alpgv-qtZG3xlOxo7nj-182">
          <mxGeometry x="565" y="900" width="290" height="320" as="geometry" />
        </mxCell>
        <mxCell id="4alpgv-qtZG3xlOxo7nj-183" value="" style="rounded=0;whiteSpace=wrap;html=1;" vertex="1" parent="4alpgv-qtZG3xlOxo7nj-191">
          <mxGeometry width="290" height="320" as="geometry" />
        </mxCell>
        <mxCell id="4alpgv-qtZG3xlOxo7nj-184" value="&lt;u&gt;&lt;font style=&quot;font-size: 35px;&quot;&gt;make git&lt;br&gt;&lt;/font&gt;&lt;/u&gt;" style="text;strokeColor=none;fillColor=none;html=1;fontSize=24;fontStyle=1;verticalAlign=middle;align=center;" vertex="1" parent="4alpgv-qtZG3xlOxo7nj-191">
          <mxGeometry x="70" y="11.85" width="220" height="71.11" as="geometry" />
        </mxCell>
        <mxCell id="4alpgv-qtZG3xlOxo7nj-190" value="&lt;font style=&quot;font-size: 20px;&quot;&gt;Will open a GitHub Pull request for the active local branch of the repo defined in the config as UC4_SQL_REPO_NAME&lt;/font&gt;" style="rounded=0;whiteSpace=wrap;html=1;" vertex="1" parent="4alpgv-qtZG3xlOxo7nj-191">
          <mxGeometry x="20" y="94.81481481481481" width="250" height="165.92592592592592" as="geometry" />
        </mxCell>
        <mxCell id="4alpgv-qtZG3xlOxo7nj-408" value="" style="dashed=0;outlineConnect=0;html=1;align=center;labelPosition=center;verticalLabelPosition=bottom;verticalAlign=top;shape=mxgraph.weblogos.github" vertex="1" parent="4alpgv-qtZG3xlOxo7nj-191">
          <mxGeometry x="15" y="11.85" width="75" height="75" as="geometry" />
        </mxCell>
        <mxCell id="4alpgv-qtZG3xlOxo7nj-386" value="" style="group" vertex="1" connectable="0" parent="4alpgv-qtZG3xlOxo7nj-182">
          <mxGeometry x="565" y="1250" width="805" height="320" as="geometry" />
        </mxCell>
        <mxCell id="4alpgv-qtZG3xlOxo7nj-281" value="" style="rounded=0;whiteSpace=wrap;html=1;" vertex="1" parent="4alpgv-qtZG3xlOxo7nj-386">
          <mxGeometry width="805" height="320" as="geometry" />
        </mxCell>
        <mxCell id="4alpgv-qtZG3xlOxo7nj-282" value="&lt;u&gt;&lt;font style=&quot;font-size: 35px;&quot;&gt;make mapping&lt;/font&gt;&lt;/u&gt;" style="text;strokeColor=none;fillColor=none;html=1;fontSize=24;fontStyle=1;verticalAlign=middle;align=center;" vertex="1" parent="4alpgv-qtZG3xlOxo7nj-386">
          <mxGeometry x="231.74242424242422" y="10" width="353.7121212121212" height="60" as="geometry" />
        </mxCell>
        <mxCell id="4alpgv-qtZG3xlOxo7nj-283" value="&lt;font style=&quot;font-size: 15px;&quot;&gt;Extract business unit and sql dependancies about he given jobs from the&amp;nbsp;&lt;/font&gt;UC4_JSON_TABLE" style="rounded=0;whiteSpace=wrap;html=1;" vertex="1" parent="4alpgv-qtZG3xlOxo7nj-386">
          <mxGeometry x="48.78787878787879" y="100" width="707.4242424242424" height="60" as="geometry" />
        </mxCell>
        <mxCell id="4alpgv-qtZG3xlOxo7nj-383" value="&lt;span style=&quot;font-size: 15px;&quot;&gt;Parse through the SQL in the dependancies and extract all table names from DDL statements.&lt;/span&gt;" style="rounded=0;whiteSpace=wrap;html=1;" vertex="1" parent="4alpgv-qtZG3xlOxo7nj-386">
          <mxGeometry x="48.78787878787879" y="160" width="707.4242424242424" height="60" as="geometry" />
        </mxCell>
        <mxCell id="4alpgv-qtZG3xlOxo7nj-384" value="&lt;span style=&quot;font-size: 15px;&quot;&gt;Upload the resulting mapping to the dataset_mapping table table in BigQuery&amp;nbsp;&lt;/span&gt;" style="rounded=0;whiteSpace=wrap;html=1;" vertex="1" parent="4alpgv-qtZG3xlOxo7nj-386">
          <mxGeometry x="48.78787878787879" y="220" width="707.4242424242424" height="60" as="geometry" />
        </mxCell>
        <mxCell id="4alpgv-qtZG3xlOxo7nj-409" value="BigQuery" style="sketch=0;html=1;verticalAlign=top;labelPosition=center;verticalLabelPosition=bottom;align=center;spacingTop=-6;fontSize=11;fontStyle=1;fontColor=#999999;shape=image;aspect=fixed;imageAspect=0;image=data:image/svg+xml,PHN2ZyB4bWxucz0iaHR0cDovL3d3dy53My5vcmcvMjAwMC9zdmciIHhtbG5zOnY9Imh0dHBzOi8vdmVjdGEuaW8vbmFubyIgd2lkdGg9IjIwLjAwMTA0NTIyNzA1MDc4IiBoZWlnaHQ9IjIwLjAwMTA0NTIyNzA1MDc4IiBmaWxsLXJ1bGU9ImV2ZW5vZGQiIHZpZXdCb3g9IjAgMCAyMC4wMDEwNDUyMjcwNTA3OCAyMC4wMDEwNDUyMjcwNTA3OCI+JiN4YTsJPHN0eWxlIHR5cGU9InRleHQvY3NzIj4mI3hhOwkuc3Qwe2ZpbGw6I2FlY2JmYTt9JiN4YTsJLnN0MXtmaWxsOiM2NjlkZjY7fSYjeGE7CS5zdDJ7ZmlsbDojNDI4NWY0O30mI3hhOwk8L3N0eWxlPiYjeGE7CTxwYXRoIGNsYXNzPSJzdDAiIGQ9Ik00LjczIDguODN2Mi42M2E0LjkxIDQuOTEgMCAwIDAgMS43MSAxLjc0VjguODN6Ii8+JiN4YTsJPHBhdGggY2xhc3M9InN0MSIgZD0iTTcuODkgNi40MXY3LjUzQTcuNjIgNy42MiAwIDAgMCA5IDE0YTggOCAwIDAgMCAxIDBWNi40MXoiLz4mI3hhOwk8cGF0aCBjbGFzcz0ic3QwIiBkPSJNMTEuNjQgOS44NnYzLjI5YTUgNSAwIDAgMCAxLjctMS44MlY5Ljg2eiIvPiYjeGE7CTxwYXRoIGNsYXNzPSJzdDIiIGQ9Ik0xNS43NCAxNC4zMmwtMS40MiAxLjQyYS40Mi40MiAwIDAgMCAwIC42bDMuNTQgMy41NGEuNDIuNDIgMCAwIDAgLjU5IDBsMS40My0xLjQzYS40Mi40MiAwIDAgMCAwLS41OWwtMy41NC0zLjU0YS40Mi40MiAwIDAgMC0uNiAwIi8+JiN4YTsJPHBhdGggY2xhc3M9InN0MSIgZD0iTTkgMGE5IDkgMCAxIDAgMCAxOEE5IDkgMCAxIDAgOSAwbTAgMTUuNjlhNi42OCA2LjY4IDAgMCAxIC4wMDctMTMuMzYgNi42OCA2LjY4IDAgMCAxIDQuNzI3IDExLjQwM0E2LjY4IDYuNjggMCAwIDEgOSAxNS42OSIvPiYjeGE7PC9zdmc+;" vertex="1" parent="4alpgv-qtZG3xlOxo7nj-386">
          <mxGeometry x="48.79" y="20" width="50" height="50" as="geometry" />
        </mxCell>
        <mxCell id="4alpgv-qtZG3xlOxo7nj-390" value="" style="group" vertex="1" connectable="0" parent="4alpgv-qtZG3xlOxo7nj-182">
          <mxGeometry x="1080" y="900" width="290" height="320" as="geometry" />
        </mxCell>
        <mxCell id="4alpgv-qtZG3xlOxo7nj-391" value="" style="rounded=0;whiteSpace=wrap;html=1;" vertex="1" parent="4alpgv-qtZG3xlOxo7nj-390">
          <mxGeometry width="290" height="320" as="geometry" />
        </mxCell>
        <mxCell id="4alpgv-qtZG3xlOxo7nj-392" value="&lt;u&gt;&lt;font style=&quot;font-size: 35px;&quot;&gt;make install&lt;br&gt;&lt;/font&gt;&lt;/u&gt;" style="text;strokeColor=none;fillColor=none;html=1;fontSize=24;fontStyle=1;verticalAlign=middle;align=center;" vertex="1" parent="4alpgv-qtZG3xlOxo7nj-390">
          <mxGeometry y="11.851851851851851" width="290" height="71.11111111111111" as="geometry" />
        </mxCell>
        <mxCell id="4alpgv-qtZG3xlOxo7nj-393" value="&lt;font style=&quot;font-size: 20px;&quot;&gt;This command will run a pip install command that will recursively install everything in the requirements.txt&amp;nbsp;&lt;/font&gt;" style="rounded=0;whiteSpace=wrap;html=1;" vertex="1" parent="4alpgv-qtZG3xlOxo7nj-390">
          <mxGeometry x="20" y="94.81481481481481" width="250" height="165.92592592592592" as="geometry" />
        </mxCell>
        <mxCell id="4alpgv-qtZG3xlOxo7nj-396" style="edgeStyle=orthogonalEdgeStyle;rounded=0;orthogonalLoop=1;jettySize=auto;html=1;" edge="1" parent="4alpgv-qtZG3xlOxo7nj-182" source="4alpgv-qtZG3xlOxo7nj-190" target="4alpgv-qtZG3xlOxo7nj-8">
          <mxGeometry relative="1" as="geometry">
            <Array as="points">
              <mxPoint x="530" y="1078" />
              <mxPoint x="530" y="217" />
            </Array>
          </mxGeometry>
        </mxCell>
      </root>
    </mxGraphModel>
  </diagram>
</mxfile>
